<?xml version="1.0" encoding="UTF-8"?>
<svg id="Layer_1" data-name="Layer 1" xmlns="http://www.w3.org/2000/svg" viewBox="0 0 299.76 183.78">
  <defs>
    <style>
      .cls-1 {
        fill-rule: evenodd;
      }
    </style>
  </defs>
  <path d="M115.06,123.49l-8.82,25.62H27.5v-2.8h3.62c.95,0,1.96-.09,3.02-.3,1.05-.2,2.04-.53,2.97-.98.93-.46,1.77-1.01,2.53-1.7.75-.68,1.28-1.47,1.58-2.37.6-1.55.9-4.85.9-9.87v-66.38c0-6.43-.65-10.42-1.96-11.98-1.81-2.01-4.82-3.02-9.04-3.02h-3.62v-2.79h78.73v22.38h-1.81c-.56-2.71-1.11-4.94-1.66-6.71-.56-1.76-1.18-3.21-1.88-4.37-.71-1.16-1.51-2.07-2.42-2.75-.9-.68-1.99-1.29-3.24-1.85-2.06-.75-5.61-1.13-10.63-1.13h-28.03v40.38h14.85c3.26,0,5.91-.29,7.95-.86,2.04-.58,3.62-1.49,4.78-2.71,1.16-1.23,1.96-2.78,2.42-4.64.45-1.86.75-4.07.9-6.63h2.79v35.56h-2.79c-.35-2.51-.71-4.55-1.06-6.14-.35-1.58-.7-2.72-1.06-3.43-.45-.9-1.03-1.69-1.73-2.37-.71-.68-1.61-1.27-2.71-1.77-1.11-.51-2.44-.88-4-1.13-1.55-.25-3.39-.38-5.5-.38h-14.85v33.69c0,4.47.19,7.23.6,8.29.2.45.46.88.75,1.28.3.41.74.74,1.32,1.02.58.28,1.33.49,2.26.64.93.15,2.09.23,3.51.23h17.32c2.96,0,5.44-.09,7.42-.27,1.99-.18,3.72-.47,5.19-.9,1.49-.42,2.79-1.03,3.92-1.81,1.13-.78,2.32-1.77,3.58-2.97,1.55-1.51,3.13-3.44,4.75-5.8,1.6-2.36,3.21-5.13,4.82-8.29h3.02Z"/>
  <path d="M120.32,49.91c.74.1-.88.31-1.2-.36-.35-.78-2.03-2.22-1.25-2.62,0,0,20.05.08,19.58.08.8,0,4.27-.36,4.27.42v86.91c-.24,7.47.62,13.8,9.75,13.28.78.02,1.4.65,1.4,1.41,1.61,3.12-31.81.68-32.39,1.41-1.83,0-1.9-2.77-.05-2.83,8.3.53,9.07-6.23,8.78-13.28,0,0,0-64.72,0-64.72-.85-6.87,2.5-18.62-5.2-19.6"/>
  <path d="M183.69,79.4v55.46c0,2.21.08,4.01.23,5.39.15,1.38.38,2.5.68,3.35.3.85.69,1.5,1.17,1.92.48.43,1.02.82,1.62,1.17,1.31.7,3.57,1.06,6.78,1.06v2.71h-33.53v-2.71c1.71,0,3.1-.08,4.18-.23,1.08-.15,1.96-.4,2.64-.75.68-.35,1.21-.79,1.58-1.32.38-.53.74-1.17,1.09-1.92.7-1.56,1.06-4.45,1.06-8.66v-26.6c0-4.37-.08-7.81-.23-10.32-.15-2.51-.41-4.4-.79-5.65-.38-1.25-.93-2.05-1.66-2.37-.73-.33-1.65-.49-2.75-.49-1.41,0-3.11.38-5.12,1.13l-1.06-2.71,20.8-8.44h3.32Z"/>
  <path d="M242.14,138.11c-7.69,6-12.51,9.43-14.47,10.3-2.89,1.36-6.02,2.04-9.4,2.04-2.56,0-4.93-.46-7.11-1.39-2.18-.93-4.06-2.23-5.64-3.93-1.58-1.69-2.82-3.72-3.72-6.09-.9-2.37-1.35-5-1.35-7.89,0-2.13.29-4.09.86-5.89.57-1.8,1.43-3.5,2.58-5.11,1.14-1.61,2.6-3.15,4.37-4.62,1.77-1.47,3.86-2.92,6.25-4.33,5.61-3.32,14.83-7.3,27.64-11.94v-2.94c0-3.76-.31-6.89-.94-9.4-.63-2.51-1.53-4.51-2.7-6.01-1.17-1.5-2.63-2.56-4.37-3.19-1.75-.63-3.71-.94-5.89-.94-1.74,0-3.31.26-4.7.78-1.39.52-2.58,1.2-3.56,2.04-.98.85-1.73,1.83-2.25,2.94-.52,1.12-.78,2.25-.78,3.39l.16,4.74c0,2.51-.64,4.44-1.92,5.81-1.28,1.36-2.96,2.04-5.03,2.04s-3.67-.71-4.95-2.13c-1.28-1.42-1.92-3.35-1.92-5.81,0-2.29.61-4.55,1.84-6.79,1.23-2.23,3-4.25,5.31-6.05,2.32-1.8,5.18-3.24,8.59-4.33,3.41-1.09,7.29-1.64,11.65-1.64,5.78,0,10.68.85,14.72,2.54,4.03,1.69,6.95,4.61,8.75,8.75.98,2.4,1.47,7.2,1.47,14.39v25.43c0,3.6.04,6.49.12,8.67.08,2.18.18,3.68.29,4.5.27,1.58.72,2.64,1.35,3.19.63.55,1.35.82,2.17.82.54,0,1.06-.08,1.55-.25.49-.16,1.06-.49,1.72-.98.65-.49,1.42-1.16,2.29-2,.87-.84,1.99-1.95,3.35-3.31v4.58c-6.16,8.18-11.99,12.27-17.5,12.27-2.62,0-4.74-.93-6.38-2.78-1.63-1.85-2.45-5.01-2.45-9.49ZM242.14,132.79v-28.54c-4.14,1.64-7.54,3.03-10.18,4.17-2.64,1.14-4.57,2.07-5.76,2.78-4.31,2.45-7.39,4.98-9.24,7.56-1.85,2.59-2.78,5.44-2.78,8.54,0,1.96.31,3.78.94,5.44.63,1.66,1.47,3.11,2.54,4.33s2.3,2.18,3.72,2.86c1.42.68,2.89,1.02,4.42,1.02,4.14,0,9.59-2.72,16.35-8.18Z"/>
  <g>
    <path d="M0,183.46v-19.12h5.44c1.65,0,2.96.4,3.93,1.21.97.81,1.45,1.86,1.45,3.16,0,1.08-.29,2.03-.88,2.83s-1.4,1.37-2.43,1.71v.05c1.29.15,2.32.64,3.09,1.46s1.16,1.89,1.16,3.21c0,1.64-.59,2.96-1.76,3.97-1.17,1.01-2.65,1.52-4.44,1.52H0ZM2.24,166.37v6.17h2.29c1.23,0,2.19-.29,2.89-.89.7-.59,1.05-1.42,1.05-2.5,0-1.86-1.22-2.79-3.67-2.79h-2.57ZM2.24,174.55v6.88h3.04c1.31,0,2.33-.31,3.06-.93.72-.62,1.09-1.47,1.09-2.56,0-2.26-1.54-3.39-4.61-3.39h-2.57Z"/>
    <path d="M33.18,183.46h-2.48l-2.03-5.36h-8.11l-1.91,5.36h-2.49l7.33-19.12h2.32l7.36,19.12ZM27.94,176.08l-3-8.15c-.1-.27-.2-.69-.29-1.28h-.05c-.09.54-.19.97-.31,1.28l-2.97,8.15h6.63Z"/>
    <path d="M48.07,166.37h-5.52v17.09h-2.24v-17.09h-5.51v-2.03h13.27v2.03Z"/>
    <path d="M68.17,183.46h-2.24v-8.72h-9.89v8.72h-2.24v-19.12h2.24v8.39h9.89v-8.39h2.24v19.12Z"/>
    <path d="M89.62,183.46h-2.67l-3.2-5.36c-.29-.5-.58-.92-.85-1.27-.28-.35-.56-.64-.85-.86-.29-.22-.6-.38-.93-.49-.33-.1-.71-.15-1.13-.15h-1.84v8.13h-2.24v-19.12h5.71c.84,0,1.61.1,2.31.31.71.21,1.32.53,1.84.95.52.43.93.96,1.22,1.59.29.64.44,1.38.44,2.23,0,.67-.1,1.28-.3,1.83-.2.56-.48,1.05-.85,1.49-.37.44-.81.81-1.33,1.11-.52.31-1.1.54-1.75.71v.05c.32.14.6.3.83.49.24.18.46.4.67.65.21.25.42.53.63.85.21.32.44.68.7,1.1l3.59,5.75ZM78.15,166.37v6.93h3.04c.56,0,1.08-.08,1.55-.25s.89-.41,1.23-.73.62-.7.81-1.16c.2-.46.29-.97.29-1.54,0-1.02-.33-1.82-.99-2.39s-1.62-.86-2.87-.86h-3.07Z"/>
    <path d="M102.42,183.78c-2.71,0-4.88-.89-6.51-2.68-1.63-1.79-2.45-4.11-2.45-6.97,0-3.08.83-5.53,2.49-7.36s3.92-2.75,6.79-2.75c2.64,0,4.77.89,6.38,2.67s2.42,4.1,2.42,6.97c0,3.12-.83,5.59-2.48,7.4-1.65,1.81-3.87,2.72-6.64,2.72ZM102.58,166.05c-2.01,0-3.64.72-4.89,2.17-1.25,1.45-1.88,3.35-1.88,5.71s.61,4.25,1.83,5.69c1.22,1.44,2.82,2.15,4.78,2.15,2.1,0,3.75-.68,4.96-2.05,1.21-1.37,1.81-3.28,1.81-5.75s-.59-4.48-1.76-5.85c-1.17-1.38-2.79-2.07-4.85-2.07Z"/>
    <path d="M125.73,183.78c-2.71,0-4.88-.89-6.51-2.68-1.63-1.79-2.45-4.11-2.45-6.97,0-3.08.83-5.53,2.49-7.36s3.92-2.75,6.79-2.75c2.64,0,4.77.89,6.38,2.67s2.42,4.1,2.42,6.97c0,3.12-.83,5.59-2.48,7.4-1.65,1.81-3.87,2.72-6.64,2.72ZM125.89,166.05c-2.01,0-3.64.72-4.89,2.17-1.25,1.45-1.88,3.35-1.88,5.71s.61,4.25,1.83,5.69c1.22,1.44,2.82,2.15,4.78,2.15,2.1,0,3.75-.68,4.96-2.05,1.21-1.37,1.81-3.28,1.81-5.75s-.59-4.48-1.76-5.85c-1.17-1.38-2.79-2.07-4.85-2.07Z"/>
    <path d="M160.83,183.46h-2.23v-12.83c0-1.01.06-2.25.19-3.72h-.05c-.21.86-.4,1.48-.57,1.85l-6.53,14.69h-1.09l-6.52-14.58c-.19-.43-.38-1.08-.57-1.96h-.05c.07.76.11,2.01.11,3.75v12.8h-2.16v-19.12h2.96l5.87,13.33c.45,1.02.75,1.79.88,2.29h.08c.38-1.05.69-1.83.92-2.35l5.99-13.28h2.8v19.12Z"/>
    <path d="M178.8,183.46v-19.12h5.28c6.74,0,10.11,3.11,10.11,9.32,0,2.95-.94,5.32-2.81,7.11s-4.38,2.69-7.51,2.69h-5.07ZM181.04,166.37v15.07h2.85c2.51,0,4.46-.67,5.85-2.01,1.4-1.34,2.09-3.24,2.09-5.71,0-4.9-2.6-7.35-7.81-7.35h-2.99Z"/>
    <path d="M210.81,183.46h-10.13v-19.12h9.71v2.03h-7.47v6.36h6.91v2.01h-6.91v6.69h7.89v2.03Z"/>
    <path d="M216.32,182.68v-2.64c.3.27.66.51,1.09.72.42.21.87.39,1.33.54s.94.26,1.41.34.91.12,1.31.12c1.38,0,2.41-.25,3.09-.77.68-.51,1.02-1.25,1.02-2.21,0-.52-.11-.96-.34-1.35s-.54-.73-.94-1.05c-.4-.32-.87-.62-1.42-.91s-1.14-.59-1.77-.91c-.67-.34-1.29-.68-1.87-1.03s-1.08-.73-1.51-1.15c-.43-.42-.76-.89-1.01-1.42-.25-.53-.37-1.15-.37-1.86,0-.87.19-1.63.57-2.27.38-.64.88-1.17,1.51-1.59s1.33-.73,2.13-.93c.8-.2,1.61-.31,2.43-.31,1.88,0,3.26.23,4.12.68v2.52c-1.13-.78-2.58-1.17-4.35-1.17-.49,0-.98.05-1.47.15-.49.1-.92.27-1.31.5-.38.23-.69.53-.93.89-.24.36-.36.81-.36,1.33,0,.49.09.91.27,1.27.18.36.45.68.81.97s.79.58,1.3.85c.51.28,1.1.58,1.77.91.68.34,1.33.69,1.95,1.07s1.15.79,1.61,1.24c.46.45.83.96,1.1,1.51.27.55.41,1.18.41,1.89,0,.94-.18,1.74-.55,2.39-.37.65-.87,1.18-1.49,1.59s-1.35.7-2.17.89c-.82.18-1.68.27-2.59.27-.3,0-.68-.03-1.12-.07-.44-.05-.9-.12-1.36-.21-.46-.09-.9-.21-1.31-.35s-.74-.29-.99-.46Z"/>
    <path d="M236.69,183.46h-2.24v-19.12h2.24v19.12Z"/>
    <path d="M258.74,182.15c-1.92,1.08-4.05,1.63-6.4,1.63-2.73,0-4.94-.88-6.62-2.64-1.68-1.76-2.53-4.09-2.53-6.99s.94-5.39,2.81-7.29,4.24-2.85,7.11-2.85c2.08,0,3.83.34,5.24,1.01v2.48c-1.55-.98-3.38-1.47-5.49-1.47s-3.9.74-5.27,2.21c-1.37,1.48-2.05,3.39-2.05,5.73s.64,4.32,1.91,5.7c1.27,1.38,3,2.07,5.17,2.07,1.49,0,2.79-.3,3.88-.89v-5.36h-4.19v-2.03h6.43v8.67Z"/>
    <path d="M281.32,183.46h-2.75l-9.84-15.24c-.25-.38-.45-.78-.61-1.2h-.08c.07.41.11,1.28.11,2.63v13.81h-2.24v-19.12h2.91l9.57,15c.4.62.66,1.05.77,1.28h.05c-.09-.55-.13-1.49-.13-2.81v-13.47h2.24v19.12Z"/>
    <path d="M288.17,182.68v-2.64c.3.27.66.51,1.09.72.42.21.87.39,1.33.54s.94.26,1.41.34.91.12,1.31.12c1.38,0,2.41-.25,3.09-.77.68-.51,1.02-1.25,1.02-2.21,0-.52-.11-.96-.34-1.35s-.54-.73-.94-1.05c-.4-.32-.87-.62-1.42-.91s-1.14-.59-1.77-.91c-.67-.34-1.29-.68-1.87-1.03s-1.08-.73-1.51-1.15c-.43-.42-.76-.89-1.01-1.42-.25-.53-.37-1.15-.37-1.86,0-.87.19-1.63.57-2.27.38-.64.88-1.17,1.51-1.59s1.33-.73,2.13-.93c.8-.2,1.61-.31,2.43-.31,1.88,0,3.26.23,4.12.68v2.52c-1.13-.78-2.58-1.17-4.35-1.17-.49,0-.98.05-1.47.15-.49.1-.92.27-1.31.5-.38.23-.69.53-.93.89-.24.36-.36.81-.36,1.33,0,.49.09.91.27,1.27.18.36.45.68.81.97s.79.58,1.3.85c.51.28,1.1.58,1.77.91.68.34,1.33.69,1.95,1.07s1.15.79,1.61,1.24c.46.45.83.96,1.1,1.51.27.55.41,1.18.41,1.89,0,.94-.18,1.74-.55,2.39-.37.65-.87,1.18-1.49,1.59s-1.35.7-2.17.89c-.82.18-1.68.27-2.59.27-.3,0-.68-.03-1.12-.07-.44-.05-.9-.12-1.36-.21-.46-.09-.9-.21-1.31-.35s-.74-.29-.99-.46Z"/>
  </g>
  <path class="cls-1" d="M173.28,48.34c-.48.81-.94,1.54-1.43,2.31-2.17,3.43-4.9,7.73-4.9,11.04,0,2.66,1.11,5.06,2.9,6.8l.08.08c1.79,1.69,4.23,2.74,6.93,2.74s5.22-1.08,7.01-2.82l.08-.08c1.74-1.73,2.82-4.11,2.82-6.73,0-3.31-2.72-7.61-4.9-11.04-.46-.72-.88-1.4-1.43-2.31l-3.59-6.03-3.58,6.03h0s0,0,0,0"/>
  <path d="M181,21.27v2s-9.04-.01-9.04-.01v-1.99c.06-2.2-.09-4.39-.17-6.59-.13-3.68-2.82-6.55-6.75-6.87-2.87-.23-5.77-.15-8.66-.14-4.52.03-9.04-.16-13.56.16-4.83.34-8.31,3.7-8.36,8.21-.05,4.44.01,8.89-.01,13.33,0,.8.29,1.25,1.03,1.72,1.98,1.23,3.19,3.04,3.32,5.26.18,3.05,1.08,5.63,4.11,7.23.47.25.73.64.56,1.12v.39s-25.86-.04-25.86-.04v-.69c-.17-.84-.14-1.63.85-2.06.26-.12.52-.23.79-.33,1.78-.72,2.75-1.86,2.49-3.78-.25-1.81.03-3.58.8-5.28.38-.84.94-1.47,1.95-1.61,1.04-.15,1.03-.72,1.02-1.54-.05-5.92-.39-11.85.66-17.73C127.57,4.12,135.74-.08,142.05,0c7.36.09,14.72.15,22.09.11,9.65-.04,15.58,6.56,16.58,14.7.25,2.14.32,4.29.28,6.45Z"/>
</svg>